<svg aria-hidden="true" style="position:absolute;width:0;height:0;overflow:hidden" xmlns="http://www.w3.org/2000/svg">
    <defs>
        <symbol id="icon-antenna" viewBox="0 0 32 32">
            <path
                d="m30.773 22.098-8.443-8.505.937-4.616c.225.09.485.144.758.146h.033a2.16 2.16 0 1 0-2.029-1.42l-.005-.015-4.96.606L8.973.161a.53.53 0 0 0-.376-.16.536.536 0 0 0-.373.155L6.712 1.66a.535.535 0 0 0 0 .754l.814.825C6.383 5.301 5.71 7.761 5.71 10.378c0 4.106 1.656 7.824 4.336 10.525l-.001-.001a.49.49 0 0 0 .146.097 2.986 2.986 0 0 0-.052.546v6.188h-6.4a2.669 2.669 0 0 0-2.667 2.666v1.067c0 .295.239.534.534.534H26.14a.534.534 0 0 0 .533-.534v-1.067a2.67 2.67 0 0 0-2.666-2.666h-6.4v-2.742a14.784 14.784 0 0 0 10.166-1.502l-.077.039.818.823a.534.534 0 0 0 .376.16.536.536 0 0 0 .373-.155l1.512-1.504a.535.535 0 0 0 0-.754zM23.28 6.233a1.067 1.067 0 1 1 .752 1.822h-.004a1.066 1.066 0 0 1-.747-1.822h-.002zm-1.256 3.504-.598 2.946-1.175-1.183 1.774-1.763zm-.605-.902-1.92 1.909-1.486-1.493 3.406-.416zM24.004 28.8a1.6 1.6 0 0 1 1.6 1.6v.534H2.138V30.4a1.6 1.6 0 0 1 1.6-1.6h20.267zm-7.466-2.134v1.067h-5.334v-1.067h5.334zM11.204 25.6v-4.053c0-1.294 1.196-2.346 2.667-2.346s2.667 1.053 2.667 2.346V25.6h-5.334zm6.4-1.696v-2.357c0-1.882-1.675-3.413-3.733-3.413h-.058c-1.353 0-2.54.707-3.213 1.771l-.009.016a13.817 13.817 0 0 1-3.812-9.55c0-2.314.567-4.496 1.569-6.414l-.036.077 18.602 18.709c-1.823.947-3.979 1.502-6.266 1.502-1.079 0-2.128-.124-3.136-.357l.093.018zm11.289-.684L7.836 2.039l.754-.752 7.935 7.98c.004 0 .006.007.01.01l13.114 13.191-.757.752z" />
            <path
                d="M13.876 20.267h-.007a1.6 1.6 0 0 0-.003 3.2h.007a1.6 1.6 0 0 0 .002-3.2zm.373 1.978a.534.534 0 1 1-.378-.912.533.533 0 0 1 .374.911h.005z" />
        </symbol>
        <symbol id="icon-astronaut" viewBox="0 0 32 32">
            <path
                d="M31.974 4.524a.535.535 0 0 0-.427-.362h-.003l-1.911-.278-.855-1.731c-.179-.365-.777-.365-.956 0l-.855 1.731-1.911.278a.534.534 0 0 0-.296.91l1.383 1.348-.326 1.903a.532.532 0 0 0 .774.562l1.709-.899 1.709.899a.534.534 0 0 0 .773-.565v.003l-.326-1.903 1.383-1.348a.535.535 0 0 0 .134-.55l.001.004zm-2.463 1.327a.53.53 0 0 0-.153.472l.191 1.114-1-.526a.525.525 0 0 0-.501.001l.003-.001-1 .526.191-1.114a.53.53 0 0 0-.152-.472l-.811-.79 1.119-.162a.532.532 0 0 0 .402-.292l.5-1.013.5 1.013a.532.532 0 0 0 .402.292l1.119.162-.809.79zm-3.377 14.671h-1.067v1.067h1.067v-1.067zm0 2.134h-1.067v1.066h1.067v-1.066zm1.066-1.067h-1.067v1.067H27.2v-1.067zm-2.133 0H24v1.067h1.067v-1.067zm-2.667 4.8h-1.067v1.067H22.4v-1.067zm0 2.134h-1.067v1.067H22.4v-1.067zm1.067-1.067H22.4v1.067h1.067v-1.067zm-2.133 0h-1.067v1.067h1.067v-1.067zM16 24.256h-1.066v1.067H16v-1.067zm0 2.133h-1.066v1.067H16v-1.067zm1.067-1.067H16v1.067h1.067v-1.067zm-2.133 0h-1.067v1.067h1.067v-1.067zm-9.067-19.2H4.801v1.066h1.066V6.122zm0 2.134H4.801v1.066h1.066V8.256zm1.066-1.067H5.866v1.067h1.066V7.189zm-2.133 0H3.733v1.067H4.8V7.189z" />
            <path
                d="M24.715 14.16a1.774 1.774 0 0 0-1.179-.703l-.009-.001a1.769 1.769 0 0 0-1.344.355l.004-.003-1.253.96-1.898 1.417-1.358-.541c2.421-1.086 4.113-3.508 4.113-6.32 0-3.823-3.122-6.934-6.961-6.934S7.869 5.5 7.869 9.324c0 1.386.415 2.674 1.12 3.759l-2.768-.024c-.009 0-.016.005-.023.005a.511.511 0 0 0-.159.033l.004-.001c-.013.005-.026.007-.038.013-.006.003-.013.003-.019.006l-3.233 1.596-.001.001-1.893.91a.5.5 0 0 0-.065.036l.001-.001a1.782 1.782 0 0 0-.594 2.306l-.005-.01c.22.424.592.742 1.043.885l.013.003a1.772 1.772 0 0 0 1.388-.133l-.009.005 1.388-.738 2.264-1.169 1.357-.008-5.442 5.415-.001.001-1.339 1.333a1.643 1.643 0 0 0-.491 1.173v.005a1.668 1.668 0 0 0 1.667 1.664h.002a1.67 1.67 0 0 0 1.18-.485l1.314-1.309 1.741-1.3.901.897L4.07 27.28a1.643 1.643 0 0 0-.491 1.173v.004a1.662 1.662 0 0 0 1.666 1.664h.003a1.67 1.67 0 0 0 1.18-.485l4.488-4.472c.007-.006.016-.009.022-.016l5.166-5.658 3.471.494a.474.474 0 0 0 .262-.032c.017-.006.032-.015.049-.023.019-.01.039-.015.058-.027l3.213-2.133c.012-.008.018-.021.029-.03.013-.01.029-.014.041-.026l1.271-1.191c.348-.326.564-.787.564-1.3 0-.4-.132-.769-.355-1.066l.003.005zM2.13 17.77a.706.706 0 0 1-.564.05l.005.001a.717.717 0 0 1-.215-1.258l.002-.001 1.314-.632.316.924.133.389-.992.527zm3.497-1.828-1.548.8-.255-.746-.184-.537 2.027-1.001-.04 1.484zm15.1-6.62c0 .918-.219 1.785-.599 2.56l-4.181-1.899a1.865 1.865 0 0 0-.782-1.384l-.006-.004 1.464-4.861c2.377.757 4.104 2.975 4.104 5.588zm-11.789 0c0-3.235 2.644-5.867 5.894-5.867.253 0 .5.022.745.053l-1.432 4.753c-.019 0-.037-.006-.057-.006h-.001a1.872 1.872 0 0 0-1.872 1.867 1.873 1.873 0 0 0 1.872 1.867h.001c.695 0 1.295-.383 1.618-.944l3.863 1.755a5.891 5.891 0 0 1-4.737 2.39c-3.25 0-5.894-2.632-5.894-5.867zm5.957.8c0 .441-.362.8-.806.8h-.001a.804.804 0 0 1-.804-.8c0-.441.361-.8.806-.8s.806.359.806.8zM2.464 25.146a.606.606 0 0 1-.855.001.591.591 0 0 1 0-.844l.962-.959.852.848-.959.954zm3.214 3.734a.606.606 0 0 1-.855.001.591.591 0 0 1 0-.844l.963-.959.852.848-.96.955zm3.482-3.469-.001.001-1.765 1.76-.852-.848 1.765-1.757a.527.527 0 0 0 .09-.136c.007-.014.02-.026.026-.04.016-.041.019-.085.026-.128.003-.025.014-.048.014-.073 0-.035-.013-.07-.02-.105-.006-.032-.006-.064-.019-.096a.536.536 0 0 0-.092-.138c-.01-.012-.014-.026-.025-.038h-.001l-.001-.002-1.607-1.6c-.017-.017-.039-.024-.058-.038a.491.491 0 0 0-.084-.056l-.003-.001a.527.527 0 0 0-.09-.031l-.003-.001a.502.502 0 0 0-.101-.02h-.025a.603.603 0 0 0-.075.005h.003c-.036.005-.069.009-.104.021s-.064.027-.094.045c-.02.011-.043.015-.061.029l-1.774 1.324-.901-.897 2.399-2.386 4.36 4.289-.928.919zm6.819-7.017c-.016-.002-.03.004-.046.003l-.027-.001a.562.562 0 0 0-.092.008h.003a.484.484 0 0 0-.187.07l.002-.001a.492.492 0 0 0-.083.061c-.013.011-.028.016-.04.029l-4.698 5.146-4.328-4.256 2.833-2.818a.535.535 0 0 0-.378-.911h-.002l-2.219.013.028-1.607 3.104.027a6.928 6.928 0 0 0 4.978 2.101h.003c.438 0 .864-.046 1.28-.122.04.032.08.064.129.085l2.41.96.152.758.178.886-3.003-.427zm4.041.178-.313-1.558 1.446-1.08.946 1.257-2.08 1.381zm3.753-2.831-.837.785-.931-1.236.831-.637a.735.735 0 0 1 .543-.143.718.718 0 0 1 .621.71.71.71 0 0 1-.226.521z" />
            <path
                d="m13.602 18.544-2.143-2.134a.53.53 0 0 0-.752 0l-2.143 2.133a.535.535 0 0 0 0 .756l2.142 2.134a.53.53 0 0 0 .752 0l2.143-2.134a.532.532 0 0 0 0-.756zm-2.519 1.759-1.387-1.381 1.386-1.381 1.387 1.381-1.387 1.381zm6.081-15.232-.258 1.036c.071.018 1.738.452 1.738 2.149h1.067c0-2.017-1.666-2.965-2.547-3.184zm2.547 4.251h-1.067v1.066h1.067V9.322z" />
        </symbol>
        <symbol id="icon-check" viewBox="0 0 32 32">
            <path d="M4 1h24a4 4 0 0 1 4 4v22a4 4 0 0 1-4 4H4a4 4 0 0 1-4-4V5a4 4 0 0 1 4-4z" />
            <path stroke-width=".4"
                d="m7.914 16.504-.138-.132-.138.13L5.71 18.33l.152.146 7.13 6.8.138-.132 15.16-14.462-.152-.144-1.902-1.814-.138.132-13.106 12.492-5.078-4.844z" />
        </symbol>
        <symbol id="icon-client-1" viewBox="0 0 32 32">
            <path
                d="m11.472 9.057 2.116 2.003-3.927-.002v9.717h10.264V17.06l2.113 2.001V9.058H11.472zm8.36 7.767-5.998-5.678h5.998v5.678zm-1.863 2.528h-6.685v-6.535h.472v6.092h6.212v.442zm-5.351 3.228-.249-.512h-.206l.361.678v.395h.186v-.395l.362-.678h-.205l-.249.512zm.918-.512h.044l.405 1.073h-.194l-.087-.251h-.415l-.087.251h-.194l.404-1.073h.124zm-.197.675h.314l-.157-.455-.157.455zm1.297-.178-.018-.022-.006-.007a.582.582 0 0 1-.063-.102l-.001-.003a.29.29 0 0 1 .011-.251.226.226 0 0 1 .097-.092l.001-.001a.317.317 0 0 1 .148-.033c.055 0 .102.011.141.033a.23.23 0 0 1 .105.298l.001-.001a.28.28 0 0 1-.051.077.549.549 0 0 1-.073.064l-.002.001-.075.054.213.251a.42.42 0 0 0 .046-.193v-.008h.153a.707.707 0 0 1-.015.148.458.458 0 0 1-.079.178l.001-.001.157.186h-.205l-.063-.073a.412.412 0 0 1-.107.059l-.003.001a.478.478 0 0 1-.164.028h-.003a.41.41 0 0 1-.185-.039.294.294 0 0 1-.12-.106l-.001-.001a.286.286 0 0 1-.042-.152v-.005c0-.044.009-.082.027-.115s.043-.064.075-.093a.97.97 0 0 1 .1-.079zm.088.108-.022.016a.274.274 0 0 0-.058.06l-.001.001a.178.178 0 0 0-.01.182v-.001a.15.15 0 0 0 .059.061h.001a.191.191 0 0 0 .091.022h.006a.28.28 0 0 0 .174-.061l-.001.001-.239-.281zm.043-.196.066-.044a.237.237 0 0 0 .066-.06v-.001a.127.127 0 0 0 .02-.07v-.005a.106.106 0 0 0-.107-.103H14.803a.11.11 0 0 0-.099.063v.001a.151.151 0 0 0 .005.132v-.001a.405.405 0 0 0 .059.089l-.001-.001zm1.877.315h-.184a.326.326 0 0 1-.035.121l.001-.002a.161.161 0 0 1-.074.072h-.001a.274.274 0 0 1-.116.025h-.012.001-.007a.237.237 0 0 1-.106-.026l.001.001a.219.219 0 0 1-.076-.072l-.001-.001a.357.357 0 0 1-.044-.11v-.002a.705.705 0 0 1-.014-.142v-.097c0-.057.005-.107.015-.152s.027-.082.048-.113c.021-.03.047-.054.078-.069s.067-.024.105-.024h.006c.051 0 .093.009.125.027s.056.042.072.075a.334.334 0 0 1 .032.119h.184a.448.448 0 0 0-.062-.193l.001.002a.344.344 0 0 0-.135-.13l-.002-.001a.448.448 0 0 0-.202-.047h-.015.001c-.067 0-.128.012-.182.035s-.1.058-.138.103a.465.465 0 0 0-.088.157l-.001.003a.68.68 0 0 0-.03.209v.089c0 .077.01.147.03.209s.049.116.087.16a.377.377 0 0 0 .134.1l.002.001a.43.43 0 0 0 .179.036c.086 0 .16-.016.22-.047s.107-.074.141-.129a.433.433 0 0 0 .059-.188zm1.024-.158v-.059a.688.688 0 0 0-.032-.217.474.474 0 0 0-.091-.165l.001.001a.395.395 0 0 0-.139-.103l-.002-.001c-.054-.024-.115-.036-.181-.036s-.126.012-.181.036c-.054.024-.101.058-.141.104s-.069.1-.091.165a.653.653 0 0 0-.033.208V22.636c0 .081.011.154.033.218s.053.118.093.165l-.001-.001c.075.086.184.14.306.14h.016-.001c.066 0 .127-.012.181-.036s.101-.059.14-.104c.039-.045.069-.1.091-.164s.032-.137.032-.218zm-.185-.061v.06c0 .06-.006.113-.018.159a.33.33 0 0 1-.051.118l.001-.001a.227.227 0 0 1-.08.071l-.001.001a.243.243 0 0 1-.106.024H17.219a.25.25 0 0 1-.106-.024l.001.001a.235.235 0 0 1-.082-.071v-.001a.352.352 0 0 1-.051-.115v-.002a.644.644 0 0 1-.018-.151V22.573c0-.06.006-.113.018-.159s.029-.085.051-.116a.218.218 0 0 1 .081-.07l.001-.001a.234.234 0 0 1 .104-.024h.005c.041 0 .077.008.11.024s.059.039.081.071c.023.031.04.069.051.116s.018.098.018.159z" />
        </symbol>
        <symbol id="icon-client-2" viewBox="0 0 32 32">
            <path
                d="M15.129 8.735h-.041c-.063-.004-.127-.005-.19-.007h-.137c-.12 0-.242.003-.363.009l-.014-.001-.014.001h.001a8.505 8.505 0 0 0-3.226.832l.051-.022-.13.063v6.684l.306-.104c.268-.092.554-.175.849-.252.73-.195 1.571-.313 2.437-.324h.007v.878a8.532 8.532 0 0 0-.322.009h-.025a9.848 9.848 0 0 0-1.948.304l.068-.015a9.488 9.488 0 0 0-2.289.898l.049-.025V9.09a8.778 8.778 0 0 1 2.288-.942l.062-.014a8.838 8.838 0 0 1 2.213-.286h.131c.154.004.305.011.446.021.372.026.741.085 1.103.176v.864a6.512 6.512 0 0 0-1.047-.16l-.022-.001-.022-.002c-.075-.006-.149-.013-.219-.013zm1.521.883c.192.015.39.022.591.022a9.49 9.49 0 0 0 2.395-.314l-.066.015a9.563 9.563 0 0 0 2.288-.898l-.049.025v8.42a8.778 8.778 0 0 1-2.288.942l-.062.014a8.8 8.8 0 0 1-2.213.285h-.056a6.772 6.772 0 0 1-1.672-.208l.047.01V9.456a7.036 7.036 0 0 0 1.086.163zm4.285.066-.305.103c-.281.095-.565.179-.849.254-.761.204-1.635.322-2.536.325h-.002c-.199 0-.383-.005-.56-.017l-.244-.016v6.876l.209.018c.194.017.394.026.596.026a8.08 8.08 0 0 0 2.055-.272l-.057.013a8.325 8.325 0 0 0 1.612-.583l-.05.022.13-.063V9.684zM10.789 20.592a.45.45 0 0 0-.324-.138h-.017.001-.007a.519.519 0 0 0-.193.038l.003-.001a.444.444 0 0 0-.25.251l-.001.003a.493.493 0 0 0-.035.19v1.145a.541.541 0 0 0 .045.235.406.406 0 0 0 .272.235.666.666 0 0 0 .171.024.484.484 0 0 0 .475-.482v-.128h-.3v.109a.261.261 0 0 1-.018.097l.001-.002a.194.194 0 0 1-.043.065.208.208 0 0 1-.125.044l-.018.001a.152.152 0 0 1-.123-.062.268.268 0 0 1-.04-.142v-.012.001-1.068a.362.362 0 0 1 .037-.171.155.155 0 0 1 .147-.069h-.001.006a.16.16 0 0 1 .128.064c.031.04.05.092.05.147V21.072h.296V20.95a.53.53 0 0 0-.038-.199l.001.004a.457.457 0 0 0-.1-.161zm1.778-.012a.52.52 0 0 0-.519-.094.47.47 0 0 0-.273.251l-.001.003a.543.543 0 0 0-.044.222v1.098a.529.529 0 0 0 .044.225.496.496 0 0 0 .453.283c.131 0 .25-.049.341-.129h-.001a.466.466 0 0 0 .113-.154.529.529 0 0 0 .044-.225v-1.109a.527.527 0 0 0-.045-.215l.001.003a.488.488 0 0 0-.113-.16zm-.14 1.48.001.017a.197.197 0 0 1-.06.142.217.217 0 0 1-.282-.001.197.197 0 0 1-.059-.16v.001-1.099l-.001-.017c0-.056.023-.106.06-.142a.217.217 0 0 1 .282.001c.037.036.06.086.06.142l-.001.018v-.001 1.099zm2.476.491v-2.08h-.288l-.378 1.101h-.005l-.381-1.101h-.285v2.079h.297v-1.265h.005l.291.894h.148l.293-.894h.005v1.265h.297zm1.688-1.934a.42.42 0 0 0-.168-.114.632.632 0 0 0-.204-.032h-.453v2.08h.296v-.812h.152a.537.537 0 0 0 .267-.057.436.436 0 0 0 .162-.157l.001-.002a.51.51 0 0 0 .068-.181c.01-.065.016-.141.016-.218v-.02.001c.003-.1-.007-.2-.029-.297a.447.447 0 0 0-.109-.191zm-.153.634a.252.252 0 0 1-.028.11l.001-.002a.163.163 0 0 1-.075.072h-.001a.296.296 0 0 1-.124.027h-.016.001-.135v-.707h.167a.29.29 0 0 1 .121.027l-.002-.001a.164.164 0 0 1 .069.076v.001a.31.31 0 0 1 .026.116v.138c0 .048.003.098 0 .143h-.003zm1.557-.78h-.243l-.458 2.08h.296l.087-.447h.404l.087.447h.296l-.469-2.08zm-.274 1.35.146-.754h.005l.145.754h-.296zm2.188-.097h-.005l-.447-1.253h-.285v2.08h.296V21.3h.006l.453 1.25h.279v-2.079h-.296v1.253zm1.811-1.253-.238.827h-.006l-.238-.827h-.313l.407 1.201v.879h.296v-.879l.407-1.201h-.314zM9.962 23.138h.143v.401h.097v-.401h.142v-.082h-.382v.082zm1.201-.082-.187.483h.103l.04-.11h.193l.041.11h.106l-.192-.483h-.103zm-.015.292.066-.179.066.179h-.131zm1.202.013h.112v.062a.19.19 0 0 1-.115.041h-.007a.123.123 0 0 1-.096-.046.204.204 0 0 1-.036-.115v-.011.001c0-.107.046-.161.139-.161l.01-.001c.048 0 .088.033.099.077v.001l.095-.019c-.021-.094-.088-.142-.205-.142h-.006a.246.246 0 0 0-.163.062.236.236 0 0 0-.069.187v-.001.011c0 .065.024.124.062.17a.233.233 0 0 0 .168.071h.016-.001.008a.289.289 0 0 0 .197-.077v-.19h-.209v.081zm1.212-.305h-.098v.483h.338v-.082h-.24v-.401zm1.025 0h-.098v.483h.098v-.483zm1.001.322-.198-.322h-.095v.483h.091v-.315l.194.315h.097v-.483h-.09v.323zm.906-.052h.241v-.082h-.241v-.106h.259v-.082h-.357v.483h.366v-.082h-.269v-.131zm2.196-.08h-.19v-.19h-.097v.483h.097v-.211h.19v.211h.097v-.483h-.097v.191zm.912.08h.241v-.082h-.241v-.106h.26v-.082h-.356v.483h.366v-.082h-.269v-.131zm1.235 0c.084-.013.127-.058.127-.134l.001-.014a.116.116 0 0 0-.048-.094.274.274 0 0 0-.122-.029l-.02.001h.001-.205v.483h.097v-.202h.027c.019 0 .037.004.053.011h-.001a.103.103 0 0 1 .034.035l.105.153h.116l-.059-.094a.345.345 0 0 0-.106-.115l-.001-.001zm-.098-.067h-.072v-.121h.076l.02-.001c.028 0 .055.005.08.013h-.002a.064.064 0 0 1 .021.047c0 .021-.01.039-.025.051a.26.26 0 0 1-.081.012l-.019-.001h.001zm1.03.067h.24v-.082h-.24v-.106h.26v-.082h-.357v.483h.366v-.082h-.269v-.131z" />
        </symbol>
        <symbol id="icon-client-3" viewBox="0 0 32 32">
            <path
                d="M10.991 21.766c.005 0 .01.001.014.003l.012.007.066.063a.543.543 0 0 1-.185.12.713.713 0 0 1-.246.043h-.018.001a.688.688 0 0 1-.247-.04.511.511 0 0 1-.306-.284l-.001-.003a.565.565 0 0 1-.042-.218v-.019c0-.154.067-.292.173-.387a.602.602 0 0 1 .197-.114.782.782 0 0 1 .255-.04h.016c.079 0 .155.013.225.038l-.005-.001a.657.657 0 0 1 .177.101l-.055.067a.04.04 0 0 1-.014.012.038.038 0 0 1-.019.005h-.003a.048.048 0 0 1-.024-.007l-.029-.018-.041-.023a.497.497 0 0 0-.127-.04h-.003a.517.517 0 0 0-.091-.007h-.014a.536.536 0 0 0-.18.031l.004-.001a.432.432 0 0 0-.144.085.405.405 0 0 0-.127.305V21.457a.45.45 0 0 0 .035.176l-.001-.003a.382.382 0 0 0 .228.217.509.509 0 0 0 .169.029.855.855 0 0 0 .101-.006.399.399 0 0 0 .218-.093h-.001a.047.047 0 0 1 .031-.011zm1.901-.316v.007a.534.534 0 0 1-.046.219l.001-.003a.479.479 0 0 1-.123.172.563.563 0 0 1-.191.112l-.004.001a.799.799 0 0 1-.506-.002l.006.002a.585.585 0 0 1-.194-.114h.001a.511.511 0 0 1-.124-.171l-.001-.003a.572.572 0 0 1 .002-.449l-.001.004a.522.522 0 0 1 .125-.175.584.584 0 0 1 .193-.11.77.77 0 0 1 .506.001l-.006-.002c.073.026.139.064.194.113s.097.109.124.172c.03.072.046.148.044.224zm-.173 0v-.009a.475.475 0 0 0-.033-.173l.001.003a.37.37 0 0 0-.224-.217l-.003-.001a.599.599 0 0 0-.368.001l.004-.001a.378.378 0 0 0-.139.085.356.356 0 0 0-.088.131l-.001.002a.513.513 0 0 0 .002.361l-.001-.004a.37.37 0 0 0 .226.217l.003.001a.595.595 0 0 0 .364 0 .378.378 0 0 0 .139-.084.376.376 0 0 0 .088-.134.457.457 0 0 0 .031-.179zm1.47.188.018.04a.49.49 0 0 1 .041-.081l-.001.002.421-.664c.008-.011.016-.019.024-.021s.019-.004.029-.004h.13v1.081h-.147v-.828l-.001-.019.001-.02v.001l-.424.674a.062.062 0 0 1-.024.024.071.071 0 0 1-.036.009H14.194a.074.074 0 0 1-.036-.009.062.062 0 0 1-.024-.024l-.436-.678v.867h-.142V20.91h.13c.01 0 .02.001.03.004h-.001c.01.005.018.012.023.021l.43.665a.222.222 0 0 1 .021.037l.001.001zm1.583-.054v.405h-.164V20.91h.367a.787.787 0 0 1 .205.024.41.41 0 0 1 .145.067.275.275 0 0 1 .081.104l.001.002c.02.044.029.091.028.138v.007a.301.301 0 0 1-.119.239l-.001.001a.414.414 0 0 1-.146.071.678.678 0 0 1-.185.025h-.014l-.199-.003zm0-.116h.199a.463.463 0 0 0 .128-.016.272.272 0 0 0 .093-.047h-.001a.208.208 0 0 0 .076-.16v-.015a.177.177 0 0 0-.017-.077v.001a.206.206 0 0 0-.057-.073.35.35 0 0 0-.195-.059l-.027.001h.001-.199v.445zm2.212.522h-.132a.065.065 0 0 1-.034-.01.067.067 0 0 1-.022-.025l-.112-.261h-.562l-.116.261a.061.061 0 0 1-.056.035h-.132l.494-1.081h.171l.501 1.081zm-.815-.401h.464l-.196-.44a.766.766 0 0 1-.037-.101l-.019.056a.556.556 0 0 1-.018.046l-.194.439zm1.527-.674c.01.005.018.011.024.019l.72.815v-.839h.147v1.081h-.084a.066.066 0 0 1-.032-.007.086.086 0 0 1-.026-.02l-.719-.814.001.019-.001.019v-.001.803h-.147v-1.081h.087c.01 0 .02.002.03.005zm2.105.645v.429h-.165v-.429l-.455-.651h.151c.012 0 .023.003.032.009a.083.083 0 0 1 .022.024l.285.42.03.05a.368.368 0 0 1 .021.046l.021-.047a.343.343 0 0 1 .028-.049l.281-.423a.115.115 0 0 1 .021-.023.052.052 0 0 1 .032-.011h.152l-.456.654zm-6.694-2.464c.072.008.144.014.217.02 1.111-.432 2.05-1.138 2.701-2.031s.984-1.933.959-2.99l-1.224-1.063c.249 1.125.132 2.288-.336 3.359s-1.271 2.008-2.318 2.705z" />
            <path
                d="m13.671 19.047.033.006c1.118-.695 1.97-1.666 2.447-2.786s.555-2.339.226-3.499l-1.743-1.515c.705 1.245.989 2.639.818 4.018s-.788 2.689-1.781 3.775zm5.912-3.703c-.296 1.161-1.016 2.209-2.051 2.987a6.52 6.52 0 0 1-.938.591l-.037.017c.843-.215 1.618-.596 2.266-1.113s1.149-1.156 1.467-1.868l-.707-.614z" />
            <path
                d="m19.305 15.173-1.006-.875c-.019.997-.346 1.972-.945 2.822s-1.45 1.546-2.463 2.015h.005c.226 0 .451-.012.676-.035.947-.336 1.784-.87 2.435-1.556s1.098-1.5 1.299-2.371zm-5.489-4.559-1.201-1.045c-1.073.36-1.997.994-2.649 1.818s-1.003 1.8-1.006 2.8c.004 1.105.432 2.177 1.217 3.047s1.88 1.487 3.114 1.755c1.101-1.166 1.746-2.607 1.841-4.113s-.366-2.999-1.315-4.263zm8.264 4.398c-.004-1.311-.606-2.567-1.672-3.494s-2.513-1.449-4.022-1.453h-.012a6.4 6.4 0 0 0-2.072.343l.045-.013 7.352 6.389c.24-.52.38-1.129.38-1.771z" />
        </symbol>
        <symbol id="icon-client-4" viewBox="0 0 32 32">
            <path
                d="M7.289 13.314h-.001c-.724 0-1.311.521-1.311 1.165v.001c0 .643.587 1.165 1.311 1.165h.001c.724 0 1.311-.522 1.311-1.165v-.001c0-.644-.587-1.165-1.311-1.165zm9.676-.372c-.002-.894-.402-1.75-1.113-2.382s-1.675-.988-2.68-.99c-1.006.002-1.97.357-2.681.989s-1.112 1.489-1.114 2.383v4.928s7.588-.751 7.589-4.927v-.001zM3.321 19.487c.002.622.281 1.218.775 1.657s1.165.687 1.864.689c.699-.002 1.37-.25 1.864-.689s.773-1.035.775-1.657v-3.429s-5.279.523-5.279 3.428zm2.639.614a.75.75 0 0 1-.384-.104.638.638 0 0 1-.253-.272l-.002-.004a.544.544 0 0 1-.038-.359l-.001.004c.027-.119.092-.229.189-.315a.717.717 0 0 1 .489-.18c.095 0 .186.017.27.048l-.005-.002c.127.047.234.125.31.226a.567.567 0 0 1 .065.577.62.62 0 0 1-.149.199l-.001.001a.752.752 0 0 1-.49.181h-.001v-.002zm4.826-1.1v1.288h-.265v-1.288h.266zm.514.55v.207h-.586v-.207h.586zm.061-.55v.208h-.648v-.208h.648zm1.212.614v.061a.804.804 0 0 1-.04.264.578.578 0 0 1-.113.2l.001-.001c-.048.054-.106.096-.173.125s-.141.043-.222.043c-.081 0-.155-.015-.222-.043s-.126-.072-.173-.124a.584.584 0 0 1-.113-.195l-.001-.004a.807.807 0 0 1-.04-.252v-.012.001-.061c0-.098.013-.186.04-.264s.064-.144.112-.199a.485.485 0 0 1 .17-.124l.003-.001c.067-.029.141-.043.222-.043s.155.014.222.043c.067.029.125.071.173.126s.087.121.113.199a.795.795 0 0 1 .041.264zm-.268.061v-.063a.809.809 0 0 0-.018-.181.382.382 0 0 0-.056-.132l.001.001a.245.245 0 0 0-.087-.079l-.001-.001a.253.253 0 0 0-.115-.027h-.005a.236.236 0 0 0-.207.106l-.001.001a.394.394 0 0 0-.053.128l-.001.003a.756.756 0 0 0-.019.17v.011-.001.063c0 .068.006.128.019.18s.03.096.055.132a.247.247 0 0 0 .087.08l.001.001c.035.018.075.027.12.027s.085-.009.119-.027a.24.24 0 0 0 .087-.08l.001-.001a.399.399 0 0 0 .053-.129l.001-.003a.818.818 0 0 0 .018-.18zm1.13.276v-.003a.168.168 0 0 0-.011-.06v.001a.12.12 0 0 0-.037-.051.314.314 0 0 0-.075-.046l-.002-.001a1.028 1.028 0 0 0-.121-.046l-.008-.002a1.53 1.53 0 0 1-.177-.068l.01.004a.666.666 0 0 1-.14-.084l.002.001a.375.375 0 0 1-.093-.109l-.001-.002a.308.308 0 0 1-.034-.14v-.011c0-.052.013-.101.036-.143l-.001.002c.024-.044.057-.082.099-.113s.093-.056.15-.073a.69.69 0 0 1 .192-.026c.095 0 .178.017.248.051s.126.081.165.14c.04.06.059.128.059.204h-.264v-.004a.193.193 0 0 0-.025-.096l.001.001a.156.156 0 0 0-.07-.067h-.001a.247.247 0 0 0-.11-.025h-.018a.278.278 0 0 0-.108.022l.002-.001a.157.157 0 0 0-.069.055v.001a.139.139 0 0 0-.023.076v.002c0 .022.005.042.016.059.013.02.03.036.049.049h.001c.022.015.048.03.08.043s.069.027.111.04c.07.021.132.045.185.072s.098.056.134.089c.036.033.063.07.082.112s.027.089.027.142v.012a.31.31 0 0 1-.127.25l-.001.001a.441.441 0 0 1-.148.07.712.712 0 0 1-.184.024h-.008a.72.72 0 0 1-.193-.026l.005.001a.582.582 0 0 1-.171-.078l.002.001a.386.386 0 0 1-.119-.129l-.001-.002a.376.376 0 0 1-.045-.188h.266c0 .04.006.074.019.102s.029.05.052.067c.023.017.05.03.08.037h.002a.426.426 0 0 0 .104.011h.009a.29.29 0 0 0 .106-.02l-.002.001a.14.14 0 0 0 .088-.13v-.002zm1.021-.951v1.288h-.264v-1.288h.264zm.396 0v.208h-1.051v-.208h1.051zm1.015 1.081v.207h-.685v-.207h.685zm-.598-1.081v1.288h-.266v-1.288h.266zm.509.525v.202h-.596v-.202h.596zm.089-.525v.208h-.684v-.208h.684zm.155 0h.48c.099 0 .183.015.254.044s.126.073.164.131a.38.38 0 0 1 .057.213c0 .069-.011.128-.035.178s-.057.09-.098.122l-.001.001a.51.51 0 0 1-.144.077l-.004.001-.084.044h-.418l-.002-.207h.32a.23.23 0 0 0 .108-.026l-.001.001a.167.167 0 0 0 .069-.068v-.001a.209.209 0 0 0 .024-.098v-.011a.232.232 0 0 0-.024-.102l.001.001a.156.156 0 0 0-.069-.068h-.001a.26.26 0 0 0-.109-.024h-.223v1.08h-.266v-1.288zm.72 1.288-.294-.574.28-.002.297.563v.012h-.284zm1.393-.459h-.328v-.207h.339c.041 0 .08-.009.115-.026l-.002.001a.163.163 0 0 0 .07-.07v-.001a.255.255 0 0 0-.001-.21l.001.002a.172.172 0 0 0-.069-.079h-.001a.228.228 0 0 0-.114-.03h-.246v1.08h-.266v-1.288h.502c.101 0 .187.018.259.055s.128.086.166.149.057.136.057.219c0 .083-.019.155-.057.216s-.094.107-.166.14a.622.622 0 0 1-.26.049zm1.53.252v.207h-.685v-.207h.685zm-.598-1.081v1.288h-.265v-1.288h.265zm.509.525v.202h-.596v-.202h.596zm.088-.525v.208h-.684v-.208h.684zm.75 0v1.288h-.264v-1.288h.264zm.396 0v.208h-1.051v-.208h1.051zm1.015 1.081v.207h-.685v-.207h.685zm-.599-1.081v1.288h-.265v-1.288h.266zm.51.525v.202h-.596v-.202h.596zm.088-.525v.208h-.685v-.208h.685zm.156 0h.481c.098 0 .183.015.254.044.072.029.127.073.165.131s.057.129.057.213c0 .069-.012.128-.035.178s-.057.09-.097.122l-.001.001a.51.51 0 0 1-.144.077l-.004.001-.084.044h-.418l-.002-.207h.319a.23.23 0 0 0 .108-.026l-.001.001a.16.16 0 0 0 .068-.068v-.001a.212.212 0 0 0 .024-.098v-.01a.236.236 0 0 0-.024-.103l.001.001a.151.151 0 0 0-.069-.068h-.001a.26.26 0 0 0-.109-.024h-.224v1.08h-.265v-1.288zm.72 1.288-.294-.574.281-.002.297.563v.012H22.7zm1.111-.337v-.003a.168.168 0 0 0-.011-.06v.001a.12.12 0 0 0-.037-.051.335.335 0 0 0-.075-.046l-.002-.001a1.028 1.028 0 0 0-.121-.046l-.008-.002a1.444 1.444 0 0 1-.176-.068l.01.004a.666.666 0 0 1-.14-.084l.002.001a.375.375 0 0 1-.093-.109l-.001-.002a.308.308 0 0 1-.034-.14v-.011c0-.052.013-.101.036-.143l-.001.002c.024-.044.057-.082.099-.113s.092-.056.15-.073a.68.68 0 0 1 .44.025c.07.034.126.081.165.14.04.06.059.128.059.204h-.264v-.004a.193.193 0 0 0-.025-.096l.001.001a.156.156 0 0 0-.07-.067h-.001a.247.247 0 0 0-.11-.025h-.018a.278.278 0 0 0-.108.022l.002-.001a.157.157 0 0 0-.069.055v.001a.139.139 0 0 0-.023.076v.002c0 .022.005.042.016.059.013.02.03.036.049.049h.001c.022.015.049.03.081.043s.069.027.11.04c.07.021.132.045.185.072s.098.056.134.089a.324.324 0 0 1 .108.254.308.308 0 0 1-.128.262c-.041.031-.091.054-.148.07s-.121.024-.192.024a.698.698 0 0 1-.188-.025.582.582 0 0 1-.171-.078l.002.001a.386.386 0 0 1-.119-.129l-.001-.002a.376.376 0 0 1-.045-.188h.266c0 .04.006.074.019.102s.029.05.052.067c.023.017.05.03.08.037h.002a.426.426 0 0 0 .104.011h.009a.29.29 0 0 0 .106-.02l-.002.001a.14.14 0 0 0 .088-.13v-.002z" />
        </symbol>
        <symbol id="icon-client-5" viewBox="0 0 32 32">
            <path
                d="M8.078 20.448a.431.431 0 0 1 .111.295l.001.022a.435.435 0 0 1-.041.184l.001-.003a.484.484 0 0 1-.131.168l-.001.001a.788.788 0 0 1-.446.138l-.054-.002h.002-.877v-1.869h.859a.776.776 0 0 1 .479.125l-.003-.002c.056.043.1.097.128.157s.042.127.038.193a.408.408 0 0 1-.1.286.476.476 0 0 1-.261.146.506.506 0 0 1 .296.16zm-1.029-.282h.367a.38.38 0 0 0 .233-.062.218.218 0 0 0 .062-.082l.001-.001a.197.197 0 0 0 .017-.082l-.001-.018v.001l.001-.016a.203.203 0 0 0-.018-.085l.001.001a.222.222 0 0 0-.061-.083.376.376 0 0 0-.211-.064l-.031.001h.001-.361v.491zm.637.717a.227.227 0 0 0 .067-.084l.001-.001a.216.216 0 0 0 .02-.09l-.001-.015v.001-.014a.222.222 0 0 0-.021-.093l.001.001a.25.25 0 0 0-.068-.086.399.399 0 0 0-.225-.068l-.026.001h.001-.385v.514h.39a.405.405 0 0 0 .246-.065zm2.146.369-.477-.731h-.18v.731h-.411v-1.869h.778a.81.81 0 0 1 .543.16l-.002-.002a.57.57 0 0 1 .186.416.562.562 0 0 1-.129.358l.001-.001a.645.645 0 0 1-.367.189H9.77l.509.747h-.447zm-.656-.985h.336c.233 0 .35-.094.35-.283v-.015a.259.259 0 0 0-.02-.1l.001.002a.276.276 0 0 0-.067-.097.385.385 0 0 0-.232-.077l-.034.001h.001-.34l.004.569zm2.903.608h-.819l-.145.376h-.431l.752-1.848h.466l.749 1.848h-.431l-.142-.376zm-.11-.282-.299-.789-.299.789h.598zm2.921.659h-.408l-.915-1.271v1.271h-.407v-1.869h.407l.915 1.279v-1.279h.408v1.869zm2.328-.447a.858.858 0 0 1-.369.33 1.269 1.269 0 0 1-.54.118h-.035.002-.726v-1.869h.76c.195 0 .381.042.548.119l-.008-.003a.838.838 0 0 1 .369.326 1.013 1.013 0 0 1 0 .981zm-.467-.045a.648.648 0 0 0 .18-.446.652.652 0 0 0-.18-.446.746.746 0 0 0-.513-.159h.002-.283v1.21h.283l.047.001c.176 0 .337-.06.466-.161l-.002.001zM12.334 8.986s5.264 1.82 5.153 4.453v4.454s-5.261-1.82-5.151-4.454l-.002-4.453zm9.843 7.865a7.638 7.638 0 0 1 3.345-1.128v-1.395c-1.383.488-2.557 1.374-3.345 2.523z" />
            <path
                d="M21.579 17.271c.814-1.5 2.224-2.658 3.942-3.235v-4.018s-7.497 2.592-7.339 6.342v6.341s.334-.116.86-.333c0-.203 0-.407.024-.613.155-1.741 1.059-3.354 2.513-4.485z" />
            <path
                d="M20.866 19.627c.039-.44.127-.875.262-1.298-.905.977-1.454 2.189-1.567 3.465-.011.12-.017.241-.02.365a21.05 21.05 0 0 0 1.563-.755l-.121.059a6.028 6.028 0 0 1-.117-1.836zm.299.022a5.798 5.798 0 0 0 .099 1.701l-.007-.037c2.048-1.122 4.35-2.856 4.261-4.952v-.183c-1.464.15-2.833.736-3.897 1.667a5.68 5.68 0 0 0-.455 1.782l-.002.022z" />
        </symbol>
        <symbol id="icon-client-6" viewBox="0 0 32 32">
            <path
                d="M16.128 15.217a.882.882 0 0 1-.182-.602v.003-.871c0-.267.06-.469.182-.608s.329-.208.623-.207c.277 0 .474.059.59.177a.716.716 0 0 1 .174.52v.205h-.495v-.207a.987.987 0 0 0-.015-.203.195.195 0 0 0-.071-.12.28.28 0 0 0-.158-.048l-.022.001h.001l-.021-.001a.303.303 0 0 0-.168.051l.001-.001a.236.236 0 0 0-.082.131v.002a.949.949 0 0 0-.02.198v.018-.001 1.056a.539.539 0 0 0 .063.296.235.235 0 0 0 .097.071l.002.001a.259.259 0 0 0 .129.016h-.001a.267.267 0 0 0 .176-.048l-.001.001a.214.214 0 0 0 .074-.127v-.001c.011-.07.017-.141.015-.212v-.214h.495v.196a.792.792 0 0 1-.172.549l.001-.002c-.114.129-.308.194-.593.194s-.501-.069-.622-.213zm2.063.01c-.125-.136-.188-.333-.188-.594v-.916c0-.259.063-.454.188-.587s.334-.199.628-.198c.291 0 .499.066.625.198s.189.328.189.587v.915c0 .259-.063.457-.191.594s-.334.204-.622.204-.501-.069-.628-.203zm.858-.22a.507.507 0 0 0 .059-.271v-1.121l.001-.03a.503.503 0 0 0-.06-.238l.001.003a.234.234 0 0 0-.1-.072l-.002-.001a.274.274 0 0 0-.132-.016h.001a.29.29 0 0 0-.133.016l.002-.001a.232.232 0 0 0-.101.072.481.481 0 0 0-.059.266v1.126a.507.507 0 0 0 .059.271.332.332 0 0 0 .231.091.35.35 0 0 0 .13-.025l-.002.001a.32.32 0 0 0 .104-.067v-.005zm1.179-2.049h.533l.401 1.689.411-1.689h.519l.053 2.438h-.384l-.041-1.694-.396 1.694h-.308l-.41-1.701-.038 1.701h-.388l.048-2.438zm2.513 0h.831c.479 0 .718.231.718.692 0 .442-.252.663-.756.662h-.283v1.083h-.513l.003-2.438zm.71 1.042a.384.384 0 0 0 .282-.077.393.393 0 0 0 .074-.275v-.027a.778.778 0 0 0-.026-.2l.001.005a.177.177 0 0 0-.038-.067.211.211 0 0 0-.063-.048l-.001-.001a.527.527 0 0 0-.202-.04l-.028.001h.001-.199V14h.199zm1.578-1.042h.551l.565 2.438h-.478l-.112-.562h-.491l-.115.562h-.485l.565-2.438zm.471 1.594-.192-1.023-.192 1.023h.383zm1.101-1.594h.359l.687 1.391v-1.391h.426v2.438h-.341l-.691-1.452v1.452h-.44l.001-2.438zm2.469 1.508-.571-1.505h.481l.349.967.327-.967h.471l-.564 1.505v.93h-.492v-.93zm-12.15 1.996v.127h-.418v.991h-.175v-.991h-.421v-.127h1.014zm1.312 1.119h-.14a.06.06 0 0 1-.035-.011.059.059 0 0 1-.022-.025l-.121-.266h-.581l-.121.266a.067.067 0 0 1-.019.03.06.06 0 0 1-.035.011h-.138l.513-1.118h.178l.519 1.114zm-.849-.415h.484l-.205-.455a.725.725 0 0 1-.036-.1l-.001-.006-.019.059-.019.047-.203.454zm1.733.305a.582.582 0 0 0 .253-.033l.069-.027v-.251h-.207a.04.04 0 0 1-.026-.009.024.024 0 0 1-.008-.009c-.002-.003-.002-.006-.002-.01v-.087h.398v.429a.755.755 0 0 1-.211.09l-.005.001a.928.928 0 0 1-.128.023c-.05.005-.1.007-.15.007h-.007a.779.779 0 0 1-.257-.043l.006.002a.616.616 0 0 1-.206-.118l.001.001a.558.558 0 0 1-.131-.174l-.001-.003a.545.545 0 0 1-.047-.225v-.015c0-.082.017-.16.048-.231l-.001.004c.029-.066.075-.127.132-.177s.128-.09.205-.116a.959.959 0 0 1 .539-.004.626.626 0 0 1 .192.102l-.049.069a.046.046 0 0 1-.039.021.057.057 0 0 1-.032-.009l-.053-.028.003.002a.387.387 0 0 0-.065-.029l-.003-.001a.65.65 0 0 0-.09-.024l-.004-.001a.785.785 0 0 0-.123-.01H19.104a.601.601 0 0 0-.196.032l.004-.001a.445.445 0 0 0-.151.088.378.378 0 0 0-.094.136l-.001.003a.505.505 0 0 0 .002.376l-.001-.004a.43.43 0 0 0 .252.229.577.577 0 0 0 .203.022zm1.634-.018h.56v.127h-.731v-1.118h.175l-.004.991zm1.143.128h-.175v-1.118h.175v1.118zm.652-1.113a.09.09 0 0 1 .027.02l.75.843-.001-.02.001-.021v.001-.833h.153v1.123h-.094a.072.072 0 0 1-.033-.007h.001a.097.097 0 0 1-.027-.021l-.749-.842v.869h-.147v-1.118h.091c.01 0 .02.002.029.005zm2.221-.006v.123h-.621v.369h.504v.119h-.504v.382h.621v.123h-.802v-1.115h.802zM6.389 9.557l7.787 1.909v6.689l-7.787-1.908v-6.69zm-.5-.571v7.586l8.785 2.154v-7.585L5.889 8.986z" />
            <path
                d="m10.597 22.247-8.786-2.156v-7.584l8.786 2.155v7.585zM6.035 9.47l7.685 1.885-3.269 2.823-7.686-1.886L6.034 9.47zm-.146-.484-4.078 3.52 8.786 2.155 4.077-3.521-8.785-2.155zm5.203 12.834 3.582-3.094-3.583-.878v3.973z" />
        </symbol>
        <symbol id="icon-clock" viewBox="0 0 32 32">
            <path
                d="M31.296 15.301C31.295 6.849 24.441-.002 15.988 0S.685 6.855.687 15.308c.002 6.788 4.422 12.543 10.541 14.545l.108.031a.667.667 0 0 0 .529-.065.636.636 0 0 0 .283-.357l3.865-12.25a1.913 1.913 0 1 0-.852-3.63l.011-.005-5.106-5.107a.638.638 0 0 0-.902.902l5.103 5.109a1.847 1.847 0 0 0-.191.826c0 .602.283 1.137.723 1.48l.004.003-3.682 11.673C3.843 25.782.117 17.709 2.797 10.431S13.551-.573 20.829 2.108c7.278 2.681 11.004 10.754 8.323 18.032-1.345 3.581-4.003 6.406-7.374 7.938l-.088.036-.398-1.874a.639.639 0 0 0-1.05-.343l.001-.001-3.837 3.426a.637.637 0 0 0 .227 1.083l.005.001 4.899 1.563a.637.637 0 0 0 .818-.744l.001.004-.391-1.839c5.528-2.374 9.329-7.772 9.329-14.057v-.034.002zm-15.304-.637a.638.638 0 0 1 0 1.276.638.638 0 0 1 0-1.276zm2.1 14.864 2.184-1.948.603 2.84-2.787-.892z" />
            <path
                d="M15.354 3.185V4.46a.638.638 0 0 0 1.276 0V3.185a.638.638 0 1 0-1.276 0zM3.876 14.664a.638.638 0 0 0 0 1.276h1.275a.638.638 0 0 0 0-1.276H3.876zm24.232 1.275a.638.638 0 0 0 0-1.276h-1.275a.638.638 0 0 0 0 1.276h1.275z" />
        </symbol>
        <symbol id="icon-close-btn" viewBox="0 0 32 32">
            <path
                d="m26.667 7.303-1.97-1.97-7.808 7.808-7.808-7.808-1.97 1.97 7.808 7.808-7.808 7.808 1.97 1.97 7.808-7.808 7.808 7.808 1.97-1.97-7.808-7.808 7.808-7.808z" />
        </symbol>
        <symbol id="icon-diagram" viewBox="0 0 32 32">
            <path
                d="M14.926 14.965h1.066v4.798h-1.066v-4.798zm4.264 2.132h1.066v2.665H19.19v-2.665zm-8.529 1.599h1.066v1.066h-1.066v-1.066zm-3.198-.533h1.066v1.599H7.463v-1.599z" />
            <path
                d="M1.599 28.291h25.586a1.6 1.6 0 0 0 1.599-1.599V24.56a1.6 1.6 0 0 0-1.599-1.599h-.533V9.667l3.028-2.868a1.608 1.608 0 1 0-.742-.752l-.004-.01-2.281 2.162v-1.23a1.6 1.6 0 0 0-1.599-1.599H3.731a1.6 1.6 0 0 0-1.599 1.599v15.992h-.533A1.6 1.6 0 0 0 0 24.56v2.132a1.6 1.6 0 0 0 1.599 1.599zM30.384 4.837a.533.533 0 0 1 0 1.066.533.533 0 0 1 0-1.066zM3.198 6.969c0-.294.239-.533.533-.533h21.323c.294 0 .533.239.533.533v2.239l-1.066 1.013V8.036a.534.534 0 0 0-.534-.534H4.798a.534.534 0 0 0-.534.533v13.327c0 .294.239.533.534.533h19.189a.534.534 0 0 0 .534-.533v-9.675l1.066-1.01V22.96H3.198V6.969zm4.798 6.93h-.005a1.6 1.6 0 1 0 1.112 2.748l1.853.93a.535.535 0 0 0 .636-.122l3.939-4.432 3.872 2.902a.534.534 0 0 0 .686-.039l3.365-3.188v8.131H5.331V8.568h18.123v2.661l-3.771 3.572-3.904-2.927a.534.534 0 0 0-.718.071v.001l-3.993 4.493-1.493-.746c.011-.064.017-.128.02-.193a1.6 1.6 0 0 0-1.599-1.599zm.533 1.599a.533.533 0 0 1-1.066 0 .533.533 0 0 1 1.066 0zm3.198 8.528h5.33v.533a.533.533 0 0 1-.533.533h-4.265a.533.533 0 0 1-.533-.533v-.533zm-10.66.534c0-.294.238-.533.533-.533h9.062v.533a1.6 1.6 0 0 0 1.599 1.599h4.265a1.6 1.6 0 0 0 1.599-1.599v-.533h9.062c.294 0 .533.239.533.533v2.132a.533.533 0 0 1-.533.533H1.601a.533.533 0 0 1-.533-.533V24.56z" />
        </symbol>
        <symbol id="icon-email-modal" viewBox="0 0 32 32">
            <path
                d="M26.667 5.333H5.334A2.662 2.662 0 0 0 2.682 8l-.014 16c0 1.467 1.2 2.667 2.667 2.667h21.333c1.467 0 2.667-1.2 2.667-2.667V8c0-1.467-1.2-2.667-2.667-2.667zm-.534 5.668-9.426 5.892a1.343 1.343 0 0 1-1.421-.004l.006.003L5.866 11A1.133 1.133 0 1 1 7.07 9.083l-.004-.003 8.933 5.586 8.933-5.588a1.132 1.132 0 1 1 1.204 1.916l-.005.003z" />
        </symbol>
        <symbol id="icon-envelope" viewBox="0 0 32 32">
            <path
                d="M29 4H3C1.346 4 0 5.346 0 7v18c0 1.654 1.346 3 3 3h26c1.654 0 3-1.346 3-3V7c0-1.654-1.346-3-3-3zm0 2c.136 0 .266.028.384.078L16 17.678 2.616 6.078A.971.971 0 0 1 3 6h26zm0 20H3a1 1 0 0 1-1-1V8.19l13.344 11.566a.997.997 0 0 0 1.313-.001l-.001.001L30 8.19V25a1 1 0 0 1-1 1z" />
        </symbol>
        <symbol id="icon-facebook" viewBox="0 0 32 32">
            <path d="M19 6h5V0h-5c-3.86 0-7 3.14-7 7v3H8v6h4v16h6V16h5l1-6h-6V7c0-.542.458-1 1-1z" />
        </symbol>
        <symbol id="icon-send" viewBox="0 0 32 32">
            <path
                d="M32 0 0 18l10.227 3.787L26 7 14.003 23.187l.009.003-.012-.003V32l5.735-6.691L27.002 28l4.999-28z" />
        </symbol>
        <symbol id="icon-instagram" viewBox="0 0 32 32">
            <path
                d="M16 2.881c4.275 0 4.781.019 6.462.094 1.563.069 2.406.331 2.969.55.72.27 1.334.677 1.836 1.193l.001.001a5.013 5.013 0 0 1 1.188 1.804l.012.034c.219.563.481 1.412.55 2.969.075 1.688.094 2.194.094 6.463s-.019 4.781-.094 6.463c-.069 1.563-.331 2.406-.55 2.969a4.976 4.976 0 0 1-1.193 1.836l-.001.001a5.023 5.023 0 0 1-1.803 1.188l-.034.012c-.563.219-1.413.481-2.969.55-1.688.075-2.194.094-6.463.094s-4.781-.019-6.463-.094c-1.563-.069-2.406-.331-2.969-.55a4.972 4.972 0 0 1-1.837-1.193l-.001-.001a5.023 5.023 0 0 1-1.188-1.803l-.012-.034c-.219-.563-.481-1.413-.55-2.969-.075-1.688-.094-2.194-.094-6.463s.019-4.781.094-6.463c.069-1.563.331-2.406.55-2.969a4.98 4.98 0 0 1 1.193-1.837l.001-.001a5.013 5.013 0 0 1 1.804-1.188l.034-.012c.563-.219 1.412-.481 2.969-.55 1.681-.075 2.188-.094 6.463-.094zM16 0c-4.344 0-4.887.019-6.594.094-1.7.075-2.869.35-3.881.744-1.056.412-1.95.956-2.837 1.85A7.856 7.856 0 0 0 .856 5.465l-.018.054C.444 6.538.169 7.7.094 9.4.019 11.113 0 11.656 0 16s.019 4.887.094 6.594c.075 1.7.35 2.869.744 3.881.413 1.056.956 1.95 1.85 2.837a7.822 7.822 0 0 0 2.778 1.826l.053.018c1.019.394 2.181.669 3.881.744 1.706.075 2.25.094 6.594.094s4.888-.019 6.594-.094c1.7-.075 2.869-.35 3.881-.744 1.05-.406 1.944-.956 2.831-1.844s1.438-1.781 1.844-2.831c.394-1.019.669-2.181.744-3.881.075-1.706.094-2.25.094-6.594s-.019-4.887-.094-6.594c-.075-1.7-.35-2.869-.744-3.881a7.547 7.547 0 0 0-1.829-2.842l-.002-.002A7.827 7.827 0 0 0 26.536.861l-.053-.018C25.464.449 24.302.174 22.602.099c-1.712-.081-2.256-.1-6.6-.1z" />
            <path
                d="M16 7.781c-4.537 0-8.219 3.681-8.219 8.219s3.681 8.219 8.219 8.219 8.219-3.681 8.219-8.219A8.22 8.22 0 0 0 16 7.781zm0 13.55a5.332 5.332 0 0 1 0-10.664 5.332 5.332 0 0 1-.001 10.664zM26.462 7.456a1.919 1.919 0 1 1-3.838 0 1.919 1.919 0 1 1 3.838 0z" />
        </symbol>
        <symbol id="icon-linkedin" viewBox="0 0 32 32">
            <path
                d="M12 12h5.535v2.837h.079c.77-1.381 2.655-2.837 5.464-2.837C28.92 12 30 15.637 30 20.367V30h-5.769v-8.54c0-2.037-.042-4.657-3.001-4.657-3.005 0-3.463 2.218-3.463 4.509V30H12V12zM2 12h6v18H2V12zm6-5a3 3 0 1 1-6 0 3 3 0 1 1 6 0z" />
        </symbol>
        <symbol id="icon-person-modal" viewBox="0 0 32 32">
            <path
                d="M16 16a5.333 5.333 0 1 0 0-10.666A5.333 5.333 0 1 0 16 16zm0 2.667c-3.561 0-10.667 1.787-10.667 5.333v1.333c0 .732.599 1.333 1.333 1.333h18.667c.732 0 1.333-.601 1.333-1.333V24c0-3.547-7.108-5.333-10.667-5.333z" />
        </symbol>
        <symbol id="icon-phone-modal" viewBox="0 0 32 32">
            <path
                d="m24.882 19.774-3.268-.373a2.552 2.552 0 0 0-2.11.732l-2.368 2.368c-3.669-1.894-6.585-4.81-8.427-8.372l-.051-.108 2.382-2.377a2.552 2.552 0 0 0 .731-2.122l.001.012-.373-3.243a2.578 2.578 0 0 0-2.557-2.276H6.613c-1.454 0-2.663 1.209-2.574 2.661.683 10.987 9.47 19.762 20.444 20.444 1.452.089 2.663-1.12 2.663-2.574v-2.238a2.549 2.549 0 0 0-2.253-2.532l-.012-.001z" />
        </symbol>
        <symbol id="icon-smartphone" viewBox="0 0 32 32">
            <path
                d="M23 0H9C7.346 0 6 1.346 6 3v26c0 1.654 1.346 3 3 3h14c1.654 0 3-1.346 3-3V3c0-1.654-1.346-3-3-3zM9 2h14a1 1 0 0 1 1 1v21H8V3a1 1 0 0 1 1-1zm14 28H9a1 1 0 0 1-1-1v-3h16v3a1 1 0 0 1-1 1z" />
            <path
                d="M10.708 27.478a.889.889 0 0 1 .001 1.319l-.001.001a1.048 1.048 0 0 1-1.417 0l.001.001a.889.889 0 0 1-.001-1.319l.001-.001a1.048 1.048 0 0 1 1.417 0l-.001-.001z" />
        </symbol>
        <symbol id="icon-twitter" viewBox="0 0 32 32">
            <path
                d="M32 7.075A12.607 12.607 0 0 1 28.292 8.1l-.061.006a6.633 6.633 0 0 0 2.874-3.584l.013-.047a12.97 12.97 0 0 1-4.084 1.58l-.085.014A6.548 6.548 0 0 0 22.165 4h-.011.001a6.563 6.563 0 0 0-6.563 6.563c0 .512.056 1.012.169 1.494A18.621 18.621 0 0 1 2.256 5.228l-.026-.033a6.482 6.482 0 0 0-.887 3.294v.014a6.55 6.55 0 0 0 2.896 5.44l.023.015a6.55 6.55 0 0 1-3.008-.836l.033.017v.082a6.567 6.567 0 0 0 5.226 6.428l.043.007a6.624 6.624 0 0 1-3.01.105l.042.007c.867 2.627 3.272 4.501 6.124 4.563h.007a13.084 13.084 0 0 1-8.138 2.815 13.25 13.25 0 0 1-1.652-.103l.065.007C2.832 28.9 6.306 30 10.036 30h.028-.001c12.075 0 18.681-10.006 18.681-18.681 0-.287-.006-.569-.019-.85a13.337 13.337 0 0 0 3.245-3.347l.03-.047z" />
        </symbol>
    </defs>
</svg>